<svg role="img" viewBox="0 0 364 83" fill="none" xmlns="http://www.w3.org/2000/svg">
<path fill-rule="evenodd" clip-rule="evenodd" d="M55.3022 72.4744L38.8179 81.8543L9.80726 65.3657L1.03906 66.2541L6.1998 59.244C6.1998 47.4946 6.1998 36.9797 6.1998 25.2302V24.9835H13.515V25.2302C13.515 36.9304 13.515 47.4453 13.515 59.1949L38.8179 73.5606L45.9828 69.4632L20.7303 55.0975V36.5846C20.7303 28.5873 20.7303 21.824 20.7303 13.8759V13.629H27.9951V13.8759C27.9951 21.8733 27.9951 28.6366 27.9951 36.6339V50.9505L40.3711 58.01L53.2979 65.3657L60.4629 61.2683L35.2104 46.9022V44.8288C35.2104 29.9694 35.2104 16.2949 35.2104 1.38605V1.08984H42.4752V1.33668C42.4752 15.505 42.4752 28.4885 42.4752 42.7059L55.2018 49.9138L64.1206 54.9987V30.3645L49.5903 22.1694V13.8759L58.0078 18.6645C59.1103 17.529 59.9117 16.0974 60.3126 14.567C60.9638 12.0987 60.6132 9.48224 59.3105 7.31009L59.1602 7.06327L65.4732 3.45946L65.6236 3.70628C67.8784 7.55692 68.4796 12.148 67.3272 16.4429C66.7261 18.5657 65.7739 20.5898 64.371 22.3177L71.2353 26.2176V34.067C73.44 33.7707 75.7447 33.9188 77.8994 34.5112L78.1495 34.5605C82.4086 35.7455 86.016 38.5101 88.2207 42.3112L88.3711 42.5581L82.058 46.1618L81.9077 45.915C80.6549 43.7426 78.6007 42.1634 76.1454 41.4721L76.0454 41.4226C74.4922 41.0277 72.8385 40.9784 71.2856 41.3733V63.2924L55.3022 72.4744Z" fill="#fff"></path>
<path d="M141.924 19.7275V27.3865H130.664V60.3647H122.456V27.3865H111.246V19.7275H141.924ZM150.081 36.3143C150.782 34.4603 151.983 33.0456 153.634 32.1187C155.286 31.192 157.137 30.7041 159.139 30.7041V39.0462C156.787 38.7534 154.685 39.2411 152.834 40.4609C150.982 41.6804 150.081 43.632 150.081 46.4612V60.316H142.374V31.2895H150.081V36.3143ZM185.112 31.2895H192.819V60.316H185.112V56.9012C182.81 59.7304 179.557 61.1452 175.404 61.1452C171.45 61.1452 168.047 59.6817 165.195 56.7059C162.342 53.7302 160.941 50.1201 160.941 45.8269C160.941 41.5342 162.342 37.9242 165.195 34.9484C168.047 31.9723 171.45 30.5088 175.404 30.5088C179.557 30.5088 182.81 31.9234 185.112 34.7531V31.2895ZM170.9 51.73C172.451 53.2423 174.403 54.0226 176.805 54.0226C179.207 54.0226 181.159 53.2423 182.71 51.73C184.261 50.2178 185.062 48.2175 185.062 45.8269C185.062 43.4367 184.261 41.4853 182.71 39.9243C181.159 38.4119 179.157 37.6312 176.805 37.6312C174.453 37.6312 172.451 38.4119 170.9 39.9243C169.348 41.4367 168.598 43.4367 168.598 45.8269C168.598 48.2175 169.348 50.1689 170.9 51.73ZM213.938 61.1452C209.434 61.1452 205.731 59.6817 202.728 56.7548C199.725 53.8278 198.224 50.1689 198.224 45.8269C198.224 41.4853 199.725 37.8754 202.728 34.8995C205.731 31.9723 209.484 30.5088 213.938 30.5088C216.841 30.5088 219.494 31.192 221.846 32.5577C224.247 33.9239 226.048 35.7289 227.25 38.0218L220.644 41.7779C220.043 40.5586 219.143 39.6315 217.943 38.9487C216.741 38.2655 215.39 37.9242 213.838 37.9242C211.537 37.9242 209.634 38.6557 208.133 40.168C206.632 41.6804 205.881 43.5831 205.881 45.8758C205.881 48.1689 206.632 50.0225 208.133 51.5347C209.634 53.047 211.537 53.7789 213.838 53.7789C215.39 53.7789 216.791 53.4372 217.993 52.7544C219.193 52.0715 220.093 51.1445 220.694 49.9248L227.35 53.6325C226.048 55.9252 224.198 57.7304 221.796 59.0963C219.444 60.4625 216.841 61.1452 213.938 61.1452ZM258.879 60.3647H249.921L239.061 47.1931V60.3647H231.355V19.7275H239.061V44.1197L249.32 31.2895H258.477L246.517 45.6321L258.879 60.3647Z" fill="#fff"></path>
<path d="M288.224 39.29C291.882 41.3389 293.685 44.4612 293.685 48.559C293.685 52.0226 292.433 54.8522 289.927 57.0474C287.424 59.2427 284.369 60.3647 280.714 60.3647H263.035V19.7275H279.462C283.018 19.7275 286.072 20.8007 288.476 22.9474C290.929 25.0939 292.131 27.8256 292.131 31.1431C292.131 34.5091 290.83 37.1922 288.224 39.29ZM279.462 27.1917H271.249V36.119H279.462C280.714 36.119 281.816 35.68 282.666 34.8508C283.517 34.0212 283.968 32.9479 283.968 31.6797C283.968 30.4113 283.569 29.3381 282.716 28.5088C281.816 27.6307 280.764 27.1917 279.462 27.1917ZM280.714 52.8522C282.115 52.8522 283.267 52.4127 284.17 51.486C285.07 50.5591 285.521 49.4371 285.521 48.0225C285.521 46.6565 285.07 45.5345 284.17 44.6076C283.267 43.6805 282.115 43.2414 280.714 43.2414H271.249V52.8033H280.714V52.8522ZM305.653 48.9003C306.705 52.5592 309.508 54.3643 314.066 54.3643C317.021 54.3643 319.225 53.3885 320.726 51.486L326.937 54.9496C323.982 59.0963 319.674 61.1452 313.966 61.1452C309.059 61.1452 305.102 59.6817 302.098 56.8036C299.143 53.9251 297.639 50.2665 297.639 45.8269C297.639 41.4367 299.093 37.8265 302.048 34.8995C305.002 31.9723 308.758 30.5088 313.365 30.5088C317.722 30.5088 321.327 31.9723 324.182 34.8995C327.037 37.8265 328.439 41.4853 328.439 45.8269C328.439 46.8027 328.339 47.8272 328.139 48.9003H305.653ZM305.553 43.0952H320.726C320.275 41.1436 319.375 39.6315 318.023 38.7045C316.67 37.7289 315.118 37.241 313.365 37.241C311.311 37.241 309.61 37.7289 308.257 38.8023C306.905 39.7779 306.003 41.2414 305.553 43.0952ZM340.058 48.9003C341.11 52.5592 343.913 54.3643 348.471 54.3643C351.426 54.3643 353.63 53.3885 355.131 51.486L361.342 54.9496C358.387 59.0963 354.079 61.1452 348.371 61.1452C343.462 61.1452 339.507 59.6817 336.502 56.8036C333.547 53.9251 332.044 50.2665 332.044 45.8269C332.044 41.4367 333.498 37.8265 336.452 34.8995C339.407 31.9723 343.162 30.5088 347.77 30.5088C352.126 30.5088 355.732 31.9723 358.587 34.8995C361.442 37.8265 362.843 41.4853 362.843 45.8269C362.843 46.8027 362.743 47.8272 362.544 48.9003H340.058ZM339.958 43.0952H355.131C354.68 41.1436 353.779 39.6315 352.428 38.7045C351.074 37.7289 349.523 37.241 347.77 37.241C345.716 37.241 344.013 37.7289 342.661 38.8023C341.26 39.7779 340.357 41.2414 339.958 43.0952Z" fill="#fff"></path>
</svg>
